<?xml version="1.0" encoding="utf-8"?>
<!-- Generator: Adobe Illustrator 16.0.0, SVG Export Plug-In . SVG Version: 6.00 Build 0)  -->
<!DOCTYPE svg PUBLIC "-//W3C//DTD SVG 1.1//EN" "http://www.w3.org/Graphics/SVG/1.1/DTD/svg11.dtd">
<svg version="1.1" id="Layer_1" xmlns="http://www.w3.org/2000/svg" xmlns:xlink="http://www.w3.org/1999/xlink" x="0px" y="0px"
	 width="875.527px" height="105.13px" viewBox="0 431.966 875.527 105.13" enable-background="new 0 431.966 875.527 105.13"
	 xml:space="preserve">
<path fill="#F26419" d="M32.022,480c0-15.889,12.927-28.82,28.82-28.82c15.893,0,28.82,12.932,28.82,28.82
	c0,0.215,0,0.431-0.011,0.646c6.155-2.188,12.598-3.458,19.122-3.77c-1.613-25.037-22.496-44.911-47.931-44.911
	c-25.436,0-46.317,19.874-47.932,44.919c6.524,0.313,12.967,1.582,19.122,3.77C32.022,480.431,32.022,480.215,32.022,480z"/>
<path fill="#F26419" d="M112.08,483.202c-21.483,0-40.405,11.195-51.237,28.061c-10.826-16.857-29.747-28.061-51.236-28.061H0
	v19.213h9.607c17.287,0,32.145,10.592,38.427,25.619h25.618c6.282-15.027,21.145-25.619,38.427-25.619h9.607v-19.213H112.08z"/>
<path d="M181.979,511.223c-7.625,0-13.709-2.127-18.254-6.38c-4.545-4.253-6.818-10.367-6.819-18.342v-14.604
	c0-7.975,2.273-14.089,6.819-18.342c4.545-4.254,10.63-6.379,18.254-6.378c7.683,0,13.782,2.126,18.297,6.378
	c4.516,4.251,6.774,10.365,6.774,18.342v14.604c0,7.977-2.258,14.091-6.774,18.342C195.76,509.094,189.661,511.221,181.979,511.223z
	 M181.979,501.721c4.573,0,8.136-1.335,10.688-4.003c2.552-2.669,3.828-6.29,3.827-10.864v-15.309c0-4.575-1.275-8.197-3.827-10.865
	c-2.552-2.668-6.114-4.002-10.688-4.003c-4.517,0-8.051,1.334-10.602,4.002s-3.825,6.29-3.823,10.866v15.309
	c0,4.574,1.275,8.195,3.827,10.864C173.934,500.386,177.466,501.721,181.979,501.721z"/>
<path d="M214.532,527.585V466.53h9.941v5.72h1.497c0.995-1.815,2.593-3.428,4.794-4.839c2.201-1.411,5.353-2.114,9.457-2.112
	c3.442-0.02,6.827,0.876,9.809,2.596c3.02,1.731,5.439,4.269,7.258,7.61c1.819,3.343,2.727,7.359,2.723,12.052v1.407
	c0,4.693-0.908,8.711-2.723,12.053s-4.22,5.879-7.214,7.61c-2.992,1.729-6.276,2.594-9.853,2.596c-2.758,0-5.062-0.323-6.911-0.969
	s-3.345-1.496-4.487-2.552c-1.143-1.056-2.038-2.111-2.683-3.166h-1.496v23.049H214.532z M237.229,502.424
	c3.695,0,6.731-1.187,9.109-3.56c2.378-2.374,3.565-5.759,3.56-10.157v-0.879c0-4.457-1.202-7.858-3.607-10.205
	s-5.425-3.52-9.062-3.52c-3.637,0-6.673,1.174-9.109,3.52c-2.436,2.347-3.653,5.748-3.651,10.205v0.879
	c0,4.398,1.217,7.783,3.651,10.157C230.555,501.237,233.591,502.424,237.229,502.424L237.229,502.424z"/>
<path d="M287.111,511.223c-4.342,0-8.169-0.924-11.482-2.771c-3.313-1.848-5.893-4.458-7.741-7.83s-2.771-7.315-2.771-11.832v-1.057
	c0-4.574,0.907-8.533,2.722-11.877c1.751-3.275,4.408-5.978,7.653-7.785c3.284-1.847,7.067-2.771,11.349-2.771
	c4.223,0,7.917,0.924,11.084,2.771c3.167,1.849,5.633,4.443,7.397,7.785c1.759,3.344,2.639,7.244,2.639,11.701v3.606h-32.64
	c0.117,3.402,1.32,6.13,3.607,8.183c2.288,2.052,5.103,3.078,8.446,3.078c3.28,0,5.714-0.718,7.301-2.155
	c1.527-1.36,2.756-3.022,3.607-4.882l8.357,4.311c-0.822,1.583-2.008,3.27-3.561,5.059c-1.551,1.789-3.619,3.313-6.201,4.574
	C294.295,510.59,291.039,511.221,287.111,511.223z M275.41,483.51h22.257c-0.234-2.873-1.334-5.16-3.298-6.861
	c-1.965-1.701-4.502-2.552-7.61-2.552c-3.228,0-5.808,0.851-7.742,2.552C277.083,478.35,275.88,480.637,275.41,483.51z"/>
<path d="M314.821,509.99v-43.46h9.94v6.073h1.496c0.762-1.642,2.14-3.196,4.134-4.662c1.995-1.467,5.016-2.2,9.063-2.199
	c3.343,0,6.304,0.763,8.886,2.288c2.561,1.507,4.648,3.7,6.025,6.333c1.439,2.697,2.159,5.893,2.159,9.586v26.041h-10.116v-25.252
	c0-3.519-0.865-6.143-2.596-7.873s-4.18-2.596-7.346-2.596c-3.578,0-6.394,1.187-8.445,3.56c-2.053,2.374-3.079,5.759-3.079,10.157
	v21.988L314.821,509.99z"/>
<path d="M365.053,509.99v-61.585h27.184c3.695,0,6.936,0.63,9.722,1.892c2.785,1.262,4.956,3.05,6.51,5.366
	c1.553,2.318,2.33,5.09,2.331,8.313v0.792c0,2.815-0.527,5.132-1.583,6.95s-2.316,3.227-3.783,4.224
	c-1.466,0.997-2.873,1.7-4.223,2.111v1.495c1.349,0.354,2.785,1.013,4.311,1.979s2.83,2.375,3.915,4.224
	c1.085,1.847,1.627,4.236,1.627,7.169v0.879c0,3.345-0.791,6.233-2.374,8.667c-1.584,2.434-3.769,4.295-6.555,5.586
	c-2.786,1.29-5.997,1.936-9.633,1.936L365.053,509.99z M375.698,474.181h15.392c2.697,0,4.896-0.675,6.597-2.024
	s2.552-3.226,2.552-5.63v-0.88c0-2.403-0.838-4.28-2.513-5.63c-1.676-1.349-3.89-2.023-6.642-2.022h-15.392L375.698,474.181z
	 M375.698,500.396h15.484c2.873,0,5.146-0.689,6.818-2.067c1.672-1.379,2.508-3.326,2.505-5.843v-0.792
	c0-2.521-0.82-4.472-2.463-5.851c-1.643-1.38-3.93-2.069-6.86-2.07h-15.484V500.396z"/>
<path d="M438.51,511.223c-4.342,0-8.227-0.896-11.657-2.685c-3.37-1.731-6.178-4.386-8.094-7.653
	c-1.965-3.313-2.947-7.286-2.946-11.921v-1.407c0-4.632,0.982-8.62,2.946-11.965c1.9-3.28,4.712-5.939,8.094-7.653
	c3.432-1.76,7.317-2.64,11.657-2.64s8.21,0.88,11.611,2.64s6.084,4.311,8.05,7.653s2.948,7.331,2.947,11.965v1.407
	c0,4.635-0.982,8.608-2.947,11.921c-1.907,3.259-4.698,5.912-8.05,7.653C446.721,510.326,442.85,511.221,438.51,511.223z
	 M438.51,502.248c3.693,0,6.714-1.187,9.061-3.561c2.348-2.373,3.52-5.701,3.519-9.984v-0.88c0-4.28-1.173-7.608-3.519-9.984
	c-2.345-2.376-5.365-3.563-9.061-3.56c-3.695,0-6.716,1.187-9.062,3.56s-3.52,5.701-3.52,9.984v0.88c0,4.282,1.174,7.61,3.52,9.984
	S434.814,502.249,438.51,502.248z"/>
<path d="M488.918,511.223c-4.341,0-8.227-0.896-11.655-2.685c-3.37-1.73-6.178-4.386-8.094-7.653
	c-1.966-3.313-2.948-7.286-2.948-11.921v-1.407c0-4.632,0.982-8.62,2.948-11.965c1.899-3.281,4.711-5.939,8.094-7.653
	c3.43-1.76,7.315-2.64,11.655-2.64c4.341,0,8.212,0.88,11.613,2.64c3.4,1.76,6.084,4.311,8.05,7.653s2.947,7.331,2.946,11.965v1.407
	c0,4.635-0.982,8.608-2.946,11.921c-1.908,3.259-4.699,5.912-8.05,7.653C497.128,510.326,493.257,511.221,488.918,511.223z
	 M488.918,502.248c3.695,0,6.716-1.187,9.062-3.561c2.346-2.373,3.52-5.701,3.52-9.984v-0.88c0-4.28-1.174-7.608-3.52-9.984
	s-5.366-3.563-9.062-3.56c-3.694,0-6.715,1.187-9.062,3.56c-2.346,2.373-3.519,5.701-3.519,9.984v0.88
	c0,4.282,1.173,7.61,3.519,9.984C482.203,501.062,485.224,502.249,488.918,502.248z"/>
<path d="M518.74,509.99v-61.585h10.117v34.573h1.495l15.66-16.451h13.284l-21.026,21.029L560,509.99h-13.108l-16.543-17.683h-1.495
	v17.683H518.74z"/>
<g>
	<path fill="#F26419" d="M608.34,509.99v-42.82h-15.293v-8.719h40.957v8.719h-15.258v42.82H608.34z"/>
	<path fill="#F26419" d="M640.719,509.99v-51.539h38.215v8.719h-27.809v11.426H677v8.684h-25.875v14.027h28.793v8.684H640.719z"/>
	<path fill="#F26419" d="M686.105,493.221l10.125-0.984c0.609,3.398,1.846,5.895,3.709,7.488s4.377,2.391,7.541,2.391
		c3.352,0,5.877-0.709,7.576-2.127s2.549-3.076,2.549-4.975c0-1.219-0.357-2.256-1.072-3.111s-1.963-1.6-3.744-2.232
		c-1.219-0.422-3.996-1.172-8.332-2.25c-5.578-1.383-9.492-3.082-11.742-5.098c-3.164-2.835-4.746-6.293-4.746-10.371
		c0-2.625,0.744-5.08,2.232-7.365s3.633-4.025,6.434-5.221s6.182-1.793,10.143-1.793c6.469,0,11.338,1.418,14.607,4.254
		c3.27,2.836,4.986,6.622,5.15,11.355l-10.406,0.457c-0.445-2.648-1.4-4.553-2.865-5.713s-3.662-1.74-6.592-1.74
		c-3.023,0-5.391,0.621-7.102,1.863c-1.102,0.797-1.652,1.863-1.652,3.199c0,1.219,0.516,2.262,1.547,3.129
		c1.313,1.102,4.5,2.25,9.563,3.445s8.807,2.432,11.232,3.709s4.324,3.023,5.695,5.238s2.057,4.951,2.057,8.209
		c0,2.953-0.82,5.719-2.461,8.297s-3.961,4.494-6.961,5.748s-6.738,1.881-11.215,1.881c-6.516,0-11.52-1.506-15.012-4.518
		S686.785,498.986,686.105,493.221z"/>
	<path fill="#F26419" d="M748.367,509.99v-42.82h-15.293v-8.719h40.957v8.719h-15.258v42.82H748.367z"/>
	<path fill="#F26419" d="M780.746,509.99v-51.539h38.215v8.719h-27.809v11.426h25.875v8.684h-25.875v14.027h28.793v8.684H780.746z"
		/>
	<path fill="#F26419" d="M828.805,509.99v-51.539h21.902c5.508,0,9.51,0.463,12.006,1.389c2.496,0.926,4.494,2.572,5.994,4.939
		c1.5,2.368,2.25,5.075,2.25,8.121c0,3.867-1.137,7.061-3.41,9.58c-2.273,2.52-5.672,4.107-10.195,4.764
		c2.25,1.313,4.107,2.754,5.572,4.324s3.439,4.359,5.924,8.367l6.293,10.055h-12.445l-7.523-11.215
		c-2.672-4.008-4.5-6.533-5.484-7.576s-2.027-1.758-3.129-2.145s-2.848-0.58-5.238-0.58h-2.109v21.516H828.805z M839.211,480.248
		h7.699c4.992,0,8.109-0.211,9.352-0.633s2.215-1.148,2.918-2.18c0.703-1.031,1.055-2.32,1.055-3.867
		c0-1.734-0.463-3.134-1.389-4.201c-0.926-1.066-2.232-1.74-3.92-2.021c-0.844-0.117-3.375-0.176-7.594-0.176h-8.121V480.248z"/>
</g>
</svg>
